<?xml version="1.0" encoding="iso-8859-1"?>
<!-- Generator: Adobe Illustrator 19.0.0, SVG Export Plug-In . SVG Version: 6.00 Build 0)  -->
<svg version="1.1" id="Capa_1" xmlns="http://www.w3.org/2000/svg" xmlns:xlink="http://www.w3.org/1999/xlink" x="0px" y="0px"
	 viewBox="0 0 511.998 511.998" style="enable-background:new 0 0 511.998 511.998;" xml:space="preserve">
<g>
	<g>
		<path d="M379.218,4.885c-6.094-3.498-13.594-3.459-19.663,0.085L143.966,131.106H24.852c-10.835,0-19.617,8.782-19.617,19.617
			v210.554c0,10.835,8.782,19.617,19.617,19.617h47.08c10.835,0,19.617-8.782,19.617-19.617c0-10.835-8.782-19.617-19.617-19.617
			H44.469V170.34h105.277c4.538,0,8.913-1.569,12.398-4.414L349.838,56.111v21.376c0,10.835,8.782,19.617,19.617,19.617
			c10.835,0,19.617-8.782,19.617-19.617V21.906C389.072,14.876,385.312,8.383,379.218,4.885z"/>
	</g>
</g>
<g>
	<g>
		<path d="M369.455,216.767c-10.835,0-19.617,8.782-19.617,19.617v221.16l-155.614-82.221c-9.58-5.061-21.454-1.406-26.509,8.18
			c-5.061,9.58-1.399,21.454,8.18,26.509l184.398,97.424c2.871,1.524,6.022,2.276,9.161,2.276c3.511,0,7.016-0.948,10.129-2.818
			c5.885-3.551,9.488-9.92,9.488-16.799V236.383C389.072,225.548,380.29,216.767,369.455,216.767z"/>
	</g>
</g>
<g>
	<g>
		<path d="M506.78,34.742c-7.363-7.951-19.761-8.442-27.719-1.079L6.295,471.119c-7.951,7.356-8.435,19.767-1.079,27.719
			c3.871,4.185,9.128,6.297,14.405,6.297c4.767,0,9.547-1.72,13.32-5.212l472.76-437.456
			C513.659,55.104,514.136,42.693,506.78,34.742z"/>
	</g>
</g>
<g>
	<g>
		<path d="M149.092,134.376c-10.835,0-19.617,8.782-19.617,19.617v134.049c0,10.835,8.782,19.617,19.617,19.617
			c10.828,0,19.617-8.782,19.617-19.617V153.993C168.709,143.158,159.927,134.376,149.092,134.376z"/>
	</g>
</g>
<g>
</g>
<g>
</g>
<g>
</g>
<g>
</g>
<g>
</g>
<g>
</g>
<g>
</g>
<g>
</g>
<g>
</g>
<g>
</g>
<g>
</g>
<g>
</g>
<g>
</g>
<g>
</g>
<g>
</g>
</svg>
